<mxfile host="app.diagrams.net" modified="2023-06-29T21:15:04.749Z" agent="Mozilla/5.0 (Macintosh; Intel Mac OS X 10_15_7) AppleWebKit/605.1.15 (KHTML, like Gecko) Version/16.1 Safari/605.1.15" version="21.4.0" etag="NGhuHVSJq56U6Yr4ERKJ" type="github">
  <diagram name="Page-1" id="JS39Nk0IovtkuUYi808C">
    <mxGraphModel>
      <root>
        <mxCell id="0" />
        <mxCell id="1" parent="0" />
      </root>
    </mxGraphModel>
  </diagram>
</mxfile>
